<mxfile host="app.diagrams.net" modified="2023-11-16T12:15:23.728Z" agent="Mozilla/5.0 (Windows NT 10.0; Win64; x64) AppleWebKit/537.36 (KHTML, like Gecko) Chrome/119.0.0.0 Safari/537.36" etag="Y_27zyLOuaOrBwADvvy2" version="22.1.2" type="github">
  <diagram name="PÃ¡gina-1" id="3GC6EyN9tcvvyZ5tPlDO">
    <mxGraphModel dx="2074" dy="1144" grid="1" gridSize="10" guides="1" tooltips="1" connect="1" arrows="1" fold="1" page="1" pageScale="1" pageWidth="827" pageHeight="1169" math="0" shadow="0">
      <root>
        <mxCell id="0" />
        <mxCell id="1" parent="0" />
        <mxCell id="PdrcAa7CMFG8CxZzavgi-1" value="" style="rounded=0;whiteSpace=wrap;html=1;" vertex="1" parent="1">
          <mxGeometry x="14" y="20" width="800" height="1110" as="geometry" />
        </mxCell>
        <mxCell id="PdrcAa7CMFG8CxZzavgi-14" value="GARAJE" style="whiteSpace=wrap;html=1;align=center;fillColor=#f5f5f5;fontColor=#333333;strokeColor=#666666;" vertex="1" parent="1">
          <mxGeometry x="140" y="600" width="100" height="40" as="geometry" />
        </mxCell>
        <mxCell id="PdrcAa7CMFG8CxZzavgi-71" style="edgeStyle=orthogonalEdgeStyle;rounded=0;orthogonalLoop=1;jettySize=auto;html=1;exitX=0.25;exitY=0;exitDx=0;exitDy=0;entryX=0.5;entryY=1;entryDx=0;entryDy=0;dashed=1;dashPattern=1 2;endArrow=none;endFill=0;" edge="1" parent="1" source="PdrcAa7CMFG8CxZzavgi-16" target="PdrcAa7CMFG8CxZzavgi-69">
          <mxGeometry relative="1" as="geometry" />
        </mxCell>
        <mxCell id="PdrcAa7CMFG8CxZzavgi-72" style="edgeStyle=orthogonalEdgeStyle;rounded=0;orthogonalLoop=1;jettySize=auto;html=1;exitX=0.75;exitY=0;exitDx=0;exitDy=0;entryX=0.5;entryY=1;entryDx=0;entryDy=0;endArrow=none;endFill=0;dashed=1;dashPattern=1 2;" edge="1" parent="1" source="PdrcAa7CMFG8CxZzavgi-16" target="PdrcAa7CMFG8CxZzavgi-70">
          <mxGeometry relative="1" as="geometry" />
        </mxCell>
        <mxCell id="PdrcAa7CMFG8CxZzavgi-73" style="edgeStyle=orthogonalEdgeStyle;rounded=0;orthogonalLoop=1;jettySize=auto;html=1;exitX=1;exitY=0.5;exitDx=0;exitDy=0;entryX=0.5;entryY=0;entryDx=0;entryDy=0;endArrow=none;endFill=0;" edge="1" parent="1" source="PdrcAa7CMFG8CxZzavgi-16" target="PdrcAa7CMFG8CxZzavgi-39">
          <mxGeometry relative="1" as="geometry" />
        </mxCell>
        <mxCell id="PdrcAa7CMFG8CxZzavgi-81" style="edgeStyle=orthogonalEdgeStyle;rounded=0;orthogonalLoop=1;jettySize=auto;html=1;exitX=0.5;exitY=1;exitDx=0;exitDy=0;entryX=0.5;entryY=0;entryDx=0;entryDy=0;endArrow=none;endFill=0;" edge="1" parent="1" source="PdrcAa7CMFG8CxZzavgi-16" target="PdrcAa7CMFG8CxZzavgi-79">
          <mxGeometry relative="1" as="geometry" />
        </mxCell>
        <mxCell id="PdrcAa7CMFG8CxZzavgi-16" value="RESERVA" style="whiteSpace=wrap;html=1;align=center;fillColor=#f5f5f5;fontColor=#333333;strokeColor=#666666;" vertex="1" parent="1">
          <mxGeometry x="533" y="333" width="98" height="40" as="geometry" />
        </mxCell>
        <mxCell id="PdrcAa7CMFG8CxZzavgi-17" style="edgeStyle=orthogonalEdgeStyle;rounded=0;orthogonalLoop=1;jettySize=auto;html=1;exitX=1;exitY=0.5;exitDx=0;exitDy=0;entryX=0;entryY=0.5;entryDx=0;entryDy=0;endArrow=none;endFill=0;" edge="1" parent="1" source="PdrcAa7CMFG8CxZzavgi-19" target="PdrcAa7CMFG8CxZzavgi-24">
          <mxGeometry relative="1" as="geometry" />
        </mxCell>
        <mxCell id="PdrcAa7CMFG8CxZzavgi-19" value="CLIENTE" style="whiteSpace=wrap;html=1;align=center;fillColor=#f5f5f5;fontColor=#333333;strokeColor=#666666;" vertex="1" parent="1">
          <mxGeometry x="158.87" y="333" width="100" height="40" as="geometry" />
        </mxCell>
        <mxCell id="PdrcAa7CMFG8CxZzavgi-20" style="edgeStyle=orthogonalEdgeStyle;rounded=0;orthogonalLoop=1;jettySize=auto;html=1;exitX=0.5;exitY=0;exitDx=0;exitDy=0;entryX=0.5;entryY=0;entryDx=0;entryDy=0;" edge="1" parent="1">
          <mxGeometry relative="1" as="geometry">
            <mxPoint x="49.99999999999999" y="480" as="sourcePoint" />
            <mxPoint x="49.99999999999999" y="480" as="targetPoint" />
          </mxGeometry>
        </mxCell>
        <mxCell id="PdrcAa7CMFG8CxZzavgi-21" style="edgeStyle=orthogonalEdgeStyle;rounded=0;orthogonalLoop=1;jettySize=auto;html=1;exitX=1;exitY=0.5;exitDx=0;exitDy=0;entryX=0;entryY=0.5;entryDx=0;entryDy=0;endArrow=none;endFill=0;" edge="1" parent="1" source="PdrcAa7CMFG8CxZzavgi-24" target="PdrcAa7CMFG8CxZzavgi-16">
          <mxGeometry relative="1" as="geometry" />
        </mxCell>
        <mxCell id="PdrcAa7CMFG8CxZzavgi-24" value="&lt;font style=&quot;font-size: 12px;&quot;&gt;CLIENT_RESV&lt;br&gt;1:N&lt;/font&gt;" style="shape=rhombus;perimeter=rhombusPerimeter;whiteSpace=wrap;html=1;align=center;verticalAlign=middle;fillColor=#d5e8d4;strokeColor=#82b366;" vertex="1" parent="1">
          <mxGeometry x="330" y="318" width="110" height="70" as="geometry" />
        </mxCell>
        <mxCell id="PdrcAa7CMFG8CxZzavgi-25" style="rounded=0;orthogonalLoop=1;jettySize=auto;html=1;exitX=0;exitY=0.5;exitDx=0;exitDy=0;strokeColor=none;endArrow=none;endFill=0;shadow=1;" edge="1" parent="1">
          <mxGeometry relative="1" as="geometry">
            <mxPoint x="195.13" y="577" as="targetPoint" />
            <mxPoint x="163.3699999999999" y="567" as="sourcePoint" />
          </mxGeometry>
        </mxCell>
        <mxCell id="PdrcAa7CMFG8CxZzavgi-26" value="(0, N)" style="text;strokeColor=none;fillColor=none;spacingLeft=4;spacingRight=4;overflow=hidden;rotatable=0;points=[[0,0.5],[1,0.5]];portConstraint=eastwest;fontSize=12;whiteSpace=wrap;html=1;" vertex="1" parent="1">
          <mxGeometry x="490" y="333" width="50" height="30" as="geometry" />
        </mxCell>
        <mxCell id="PdrcAa7CMFG8CxZzavgi-27" style="edgeStyle=orthogonalEdgeStyle;rounded=0;orthogonalLoop=1;jettySize=auto;html=1;exitX=0;exitY=0.5;exitDx=0;exitDy=0;entryX=1;entryY=0.5;entryDx=0;entryDy=0;endArrow=none;endFill=0;startArrow=none;startFill=0;strokeColor=none;" edge="1" parent="1">
          <mxGeometry relative="1" as="geometry">
            <mxPoint x="91" y="368" as="sourcePoint" />
            <mxPoint x="141" y="368" as="targetPoint" />
          </mxGeometry>
        </mxCell>
        <mxCell id="PdrcAa7CMFG8CxZzavgi-32" style="edgeStyle=orthogonalEdgeStyle;rounded=0;orthogonalLoop=1;jettySize=auto;html=1;exitDx=0;exitDy=0;entryX=0.5;entryY=0;entryDx=0;entryDy=0;endArrow=none;endFill=0;dashed=1;dashPattern=1 2;" edge="1" parent="1">
          <mxGeometry relative="1" as="geometry">
            <mxPoint x="154.63" y="622" as="sourcePoint" />
            <mxPoint x="154.63" y="622" as="targetPoint" />
          </mxGeometry>
        </mxCell>
        <mxCell id="PdrcAa7CMFG8CxZzavgi-58" style="edgeStyle=orthogonalEdgeStyle;rounded=0;orthogonalLoop=1;jettySize=auto;html=1;exitX=0.5;exitY=1;exitDx=0;exitDy=0;entryX=0.5;entryY=0;entryDx=0;entryDy=0;endArrow=none;endFill=0;" edge="1" parent="1" source="PdrcAa7CMFG8CxZzavgi-39" target="PdrcAa7CMFG8CxZzavgi-55">
          <mxGeometry relative="1" as="geometry" />
        </mxCell>
        <mxCell id="PdrcAa7CMFG8CxZzavgi-39" value="RESV_AGEN&lt;br&gt;N:1" style="shape=rhombus;perimeter=rhombusPerimeter;whiteSpace=wrap;html=1;align=center;fillColor=#d5e8d4;strokeColor=#82b366;" vertex="1" parent="1">
          <mxGeometry x="665" y="460" width="110" height="70" as="geometry" />
        </mxCell>
        <mxCell id="PdrcAa7CMFG8CxZzavgi-40" value="" style="edgeStyle=orthogonalEdgeStyle;rounded=0;orthogonalLoop=1;jettySize=auto;html=1;exitX=0;exitY=0.5;exitDx=0;exitDy=0;entryDx=0;entryDy=0;dashed=1;dashPattern=1 2;endArrow=none;endFill=0;" edge="1" parent="1">
          <mxGeometry relative="1" as="geometry">
            <mxPoint x="690" y="313" as="sourcePoint" />
            <mxPoint x="689" y="313" as="targetPoint" />
          </mxGeometry>
        </mxCell>
        <mxCell id="PdrcAa7CMFG8CxZzavgi-42" value="(1, N)" style="text;strokeColor=none;fillColor=none;spacingLeft=4;spacingRight=4;overflow=hidden;rotatable=0;points=[[0,0.5],[1,0.5]];portConstraint=eastwest;fontSize=12;whiteSpace=wrap;html=1;" vertex="1" parent="1">
          <mxGeometry x="632" y="330" width="50" height="30" as="geometry" />
        </mxCell>
        <mxCell id="PdrcAa7CMFG8CxZzavgi-46" value="" style="rounded=0;orthogonalLoop=1;jettySize=auto;html=1;exitX=0;exitY=0.5;exitDx=0;exitDy=0;strokeColor=none;endArrow=none;endFill=0;shadow=1;" edge="1" parent="1">
          <mxGeometry relative="1" as="geometry">
            <mxPoint x="163.3699999999999" y="557.5589123867069" as="targetPoint" />
            <mxPoint x="175.13" y="562" as="sourcePoint" />
          </mxGeometry>
        </mxCell>
        <mxCell id="PdrcAa7CMFG8CxZzavgi-48" value="(1, 1)" style="text;strokeColor=none;fillColor=none;spacingLeft=4;spacingRight=4;overflow=hidden;rotatable=0;points=[[0,0.5],[1,0.5]];portConstraint=eastwest;fontSize=12;whiteSpace=wrap;html=1;" vertex="1" parent="1">
          <mxGeometry x="258.87" y="333" width="50" height="30" as="geometry" />
        </mxCell>
        <mxCell id="PdrcAa7CMFG8CxZzavgi-56" value="id_reserva" style="ellipse;whiteSpace=wrap;html=1;align=center;fontStyle=4;" vertex="1" parent="1">
          <mxGeometry x="532" y="220" width="100" height="40" as="geometry" />
        </mxCell>
        <mxCell id="PdrcAa7CMFG8CxZzavgi-57" style="edgeStyle=orthogonalEdgeStyle;rounded=0;orthogonalLoop=1;jettySize=auto;html=1;exitX=0.5;exitY=0;exitDx=0;exitDy=0;entryX=0.5;entryY=1;entryDx=0;entryDy=0;dashed=1;dashPattern=1 2;endArrow=oval;endFill=1;" edge="1" parent="1" source="PdrcAa7CMFG8CxZzavgi-16" target="PdrcAa7CMFG8CxZzavgi-56">
          <mxGeometry relative="1" as="geometry" />
        </mxCell>
        <mxCell id="PdrcAa7CMFG8CxZzavgi-55" value="AGENCIA" style="whiteSpace=wrap;html=1;align=center;fillColor=#f5f5f5;fontColor=#333333;strokeColor=#666666;" vertex="1" parent="1">
          <mxGeometry x="670" y="600" width="100" height="40" as="geometry" />
        </mxCell>
        <mxCell id="PdrcAa7CMFG8CxZzavgi-64" style="edgeStyle=orthogonalEdgeStyle;rounded=0;orthogonalLoop=1;jettySize=auto;html=1;exitX=0;exitY=0.5;exitDx=0;exitDy=0;entryX=1;entryY=0.5;entryDx=0;entryDy=0;endArrow=none;endFill=0;" edge="1" parent="1" source="PdrcAa7CMFG8CxZzavgi-60" target="PdrcAa7CMFG8CxZzavgi-14">
          <mxGeometry relative="1" as="geometry" />
        </mxCell>
        <mxCell id="PdrcAa7CMFG8CxZzavgi-60" value="&lt;font style=&quot;font-size: 12px;&quot;&gt;GARAJ_CO&lt;br&gt;1:N&lt;/font&gt;" style="shape=rhombus;perimeter=rhombusPerimeter;whiteSpace=wrap;html=1;align=center;verticalAlign=middle;fillColor=#d5e8d4;strokeColor=#82b366;" vertex="1" parent="1">
          <mxGeometry x="320" y="585" width="110" height="70" as="geometry" />
        </mxCell>
        <mxCell id="PdrcAa7CMFG8CxZzavgi-61" value="id_agencia" style="ellipse;whiteSpace=wrap;html=1;align=center;fontStyle=4;" vertex="1" parent="1">
          <mxGeometry x="670" y="680" width="100" height="40" as="geometry" />
        </mxCell>
        <mxCell id="PdrcAa7CMFG8CxZzavgi-62" value="(1, 1)" style="text;strokeColor=none;fillColor=none;spacingLeft=4;spacingRight=4;overflow=hidden;rotatable=0;points=[[0,0.5],[1,0.5]];portConstraint=eastwest;fontSize=12;whiteSpace=wrap;html=1;" vertex="1" parent="1">
          <mxGeometry x="720" y="580" width="50" height="30" as="geometry" />
        </mxCell>
        <mxCell id="PdrcAa7CMFG8CxZzavgi-10" value="EJER. 17 -&amp;nbsp; AUTOMÃVILES" style="text;html=1;align=center;verticalAlign=middle;resizable=0;points=[];autosize=1;strokeColor=#36393d;fillColor=#cce5ff;fontStyle=1;fontSize=12;" vertex="1" parent="1">
          <mxGeometry x="44.00000000000001" y="80" width="180" height="30" as="geometry" />
        </mxCell>
        <mxCell id="PdrcAa7CMFG8CxZzavgi-11" value="&lt;div style=&quot;&quot;&gt;&lt;div style=&quot;text-align: justify;&quot;&gt;&lt;b&gt;&lt;br&gt;&lt;/b&gt;&lt;/div&gt;&lt;div style=&quot;text-align: justify;&quot;&gt;&lt;b&gt;&lt;br&gt;&lt;/b&gt;&lt;/div&gt;&lt;div style=&quot;text-align: justify;&quot;&gt;&lt;b&gt;Se desea diseÃ±ar un esquema E/R sobre la informaciÃ³n de las reservas de una empresa dedicada al alquiler de automÃ³viles.&lt;/b&gt;&lt;/div&gt;&lt;div style=&quot;text-align: justify;&quot;&gt;&lt;b&gt;&lt;br&gt;&lt;/b&gt;&lt;/div&gt;&lt;div style=&quot;text-align: justify;&quot;&gt;&lt;b&gt;Los supuestos semÃ¡nticos son los siguientes:&lt;/b&gt;&lt;br&gt;&lt;/div&gt;&lt;/div&gt;&lt;div style=&quot;&quot;&gt;&lt;ul&gt;&lt;li&gt;&lt;div style=&quot;text-align: justify;&quot;&gt;Un determinado cliente puede tener en un momento dado varias reservas&amp;nbsp;&lt;/div&gt;&lt;/li&gt;&lt;li&gt;&lt;div style=&quot;text-align: justify;&quot;&gt;Una reserva la realiza un Ãºnico cliente, pero puede involucrar varios coches.&amp;nbsp;&lt;/div&gt;&lt;/li&gt;&lt;li&gt;&lt;div style=&quot;text-align: justify;&quot;&gt;Es importante recoger la fecha de comienzo y de terminaciÃ³n de la reserva. Todo coche tiene siempre asignado un Ãºnico garaje que no puede cambiar.&amp;nbsp;&lt;/div&gt;&lt;/li&gt;&lt;li&gt;&lt;div style=&quot;text-align: justify;&quot;&gt;Cada reserva se realiza en una determinada agencia.&amp;nbsp;&lt;/div&gt;&lt;/li&gt;&lt;li&gt;&lt;div style=&quot;text-align: justify;&quot;&gt;En la base de datos pueden existir clientes que no hayan hecho ninguna reserva.&amp;nbsp;&lt;/div&gt;&lt;/li&gt;&lt;li&gt;&lt;div style=&quot;text-align: justify;&quot;&gt;Todas las entidades tienen una clave alfanumÃ©rica que las identifica unÃ­vocamente.&lt;br&gt;&lt;/div&gt;&lt;/li&gt;&lt;/ul&gt;&lt;/div&gt;" style="text;html=1;strokeColor=none;fillColor=none;spacing=5;spacingTop=-20;whiteSpace=wrap;overflow=hidden;rounded=0;align=left;" vertex="1" parent="1">
          <mxGeometry x="44.00000000000001" y="840" width="740" height="230.94" as="geometry" />
        </mxCell>
        <mxCell id="PdrcAa7CMFG8CxZzavgi-66" value="(1, N)" style="text;strokeColor=none;fillColor=none;spacingLeft=4;spacingRight=4;overflow=hidden;rotatable=0;points=[[0,0.5],[1,0.5]];portConstraint=eastwest;fontSize=12;whiteSpace=wrap;html=1;" vertex="1" parent="1">
          <mxGeometry x="240" y="590" width="50" height="30" as="geometry" />
        </mxCell>
        <mxCell id="PdrcAa7CMFG8CxZzavgi-67" style="edgeStyle=orthogonalEdgeStyle;rounded=0;orthogonalLoop=1;jettySize=auto;html=1;exitX=0.5;exitY=1;exitDx=0;exitDy=0;entryX=0.5;entryY=0;entryDx=0;entryDy=0;endArrow=oval;endFill=1;dashed=1;dashPattern=1 2;" edge="1" parent="1" source="PdrcAa7CMFG8CxZzavgi-55" target="PdrcAa7CMFG8CxZzavgi-61">
          <mxGeometry relative="1" as="geometry" />
        </mxCell>
        <mxCell id="PdrcAa7CMFG8CxZzavgi-68" value="(1, N)" style="text;strokeColor=none;fillColor=none;spacingLeft=4;spacingRight=4;overflow=hidden;rotatable=0;points=[[0,0.5],[1,0.5]];portConstraint=eastwest;fontSize=12;whiteSpace=wrap;html=1;" vertex="1" parent="1">
          <mxGeometry x="587" y="580" width="50" height="30" as="geometry" />
        </mxCell>
        <mxCell id="PdrcAa7CMFG8CxZzavgi-69" value="fecha_fin" style="ellipse;whiteSpace=wrap;html=1;align=center;fontStyle=4;" vertex="1" parent="1">
          <mxGeometry x="440" y="200" width="100" height="40" as="geometry" />
        </mxCell>
        <mxCell id="PdrcAa7CMFG8CxZzavgi-70" value="fecha_inicio" style="ellipse;whiteSpace=wrap;html=1;align=center;fontStyle=4;" vertex="1" parent="1">
          <mxGeometry x="640" y="200" width="100" height="40" as="geometry" />
        </mxCell>
        <mxCell id="PdrcAa7CMFG8CxZzavgi-83" style="edgeStyle=orthogonalEdgeStyle;rounded=0;orthogonalLoop=1;jettySize=auto;html=1;exitX=0;exitY=0.5;exitDx=0;exitDy=0;entryX=1;entryY=0.5;entryDx=0;entryDy=0;endArrow=none;endFill=0;" edge="1" parent="1" source="PdrcAa7CMFG8CxZzavgi-76" target="PdrcAa7CMFG8CxZzavgi-60">
          <mxGeometry relative="1" as="geometry" />
        </mxCell>
        <mxCell id="PdrcAa7CMFG8CxZzavgi-76" value="COCHE" style="whiteSpace=wrap;html=1;align=center;fillColor=#f5f5f5;fontColor=#333333;strokeColor=#666666;" vertex="1" parent="1">
          <mxGeometry x="500" y="600" width="110" height="40" as="geometry" />
        </mxCell>
        <mxCell id="PdrcAa7CMFG8CxZzavgi-82" style="edgeStyle=orthogonalEdgeStyle;rounded=0;orthogonalLoop=1;jettySize=auto;html=1;exitX=0.5;exitY=1;exitDx=0;exitDy=0;entryX=0.75;entryY=0;entryDx=0;entryDy=0;endArrow=none;endFill=0;" edge="1" parent="1" source="PdrcAa7CMFG8CxZzavgi-79" target="PdrcAa7CMFG8CxZzavgi-76">
          <mxGeometry relative="1" as="geometry" />
        </mxCell>
        <mxCell id="PdrcAa7CMFG8CxZzavgi-79" value="RESV_AGEN&lt;br&gt;N:N" style="shape=rhombus;perimeter=rhombusPerimeter;whiteSpace=wrap;html=1;align=center;fillColor=#d5e8d4;strokeColor=#82b366;" vertex="1" parent="1">
          <mxGeometry x="527" y="460" width="110" height="70" as="geometry" />
        </mxCell>
        <mxCell id="PdrcAa7CMFG8CxZzavgi-84" value="id_coche" style="ellipse;whiteSpace=wrap;html=1;align=center;fontStyle=4;" vertex="1" parent="1">
          <mxGeometry x="505" y="680" width="100" height="40" as="geometry" />
        </mxCell>
        <mxCell id="PdrcAa7CMFG8CxZzavgi-85" style="edgeStyle=orthogonalEdgeStyle;rounded=0;orthogonalLoop=1;jettySize=auto;html=1;exitX=0.5;exitY=1;exitDx=0;exitDy=0;entryX=0.5;entryY=0;entryDx=0;entryDy=0;endArrow=oval;endFill=1;dashed=1;dashPattern=1 2;" edge="1" parent="1" source="PdrcAa7CMFG8CxZzavgi-76" target="PdrcAa7CMFG8CxZzavgi-84">
          <mxGeometry relative="1" as="geometry" />
        </mxCell>
        <mxCell id="PdrcAa7CMFG8CxZzavgi-86" value="(1, N)" style="text;strokeColor=none;fillColor=none;spacingLeft=4;spacingRight=4;overflow=hidden;rotatable=0;points=[[0,0.5],[1,0.5]];portConstraint=eastwest;fontSize=12;whiteSpace=wrap;html=1;" vertex="1" parent="1">
          <mxGeometry x="590" y="373" width="50" height="30" as="geometry" />
        </mxCell>
        <mxCell id="PdrcAa7CMFG8CxZzavgi-87" value="id_garaje" style="ellipse;whiteSpace=wrap;html=1;align=center;fontStyle=4;" vertex="1" parent="1">
          <mxGeometry x="140" y="680" width="100" height="40" as="geometry" />
        </mxCell>
        <mxCell id="PdrcAa7CMFG8CxZzavgi-89" value="id_cliente" style="ellipse;whiteSpace=wrap;html=1;align=center;fontStyle=4;" vertex="1" parent="1">
          <mxGeometry x="30" y="333" width="100" height="40" as="geometry" />
        </mxCell>
        <mxCell id="PdrcAa7CMFG8CxZzavgi-90" style="edgeStyle=orthogonalEdgeStyle;rounded=0;orthogonalLoop=1;jettySize=auto;html=1;exitX=0;exitY=0.5;exitDx=0;exitDy=0;entryX=1;entryY=0.5;entryDx=0;entryDy=0;endArrow=oval;endFill=1;dashed=1;dashPattern=1 2;" edge="1" parent="1" source="PdrcAa7CMFG8CxZzavgi-19" target="PdrcAa7CMFG8CxZzavgi-89">
          <mxGeometry relative="1" as="geometry" />
        </mxCell>
        <mxCell id="PdrcAa7CMFG8CxZzavgi-88" style="edgeStyle=orthogonalEdgeStyle;rounded=0;orthogonalLoop=1;jettySize=auto;html=1;exitX=0.5;exitY=1;exitDx=0;exitDy=0;entryX=0.5;entryY=0;entryDx=0;entryDy=0;endArrow=oval;endFill=1;dashed=1;dashPattern=1 2;" edge="1" parent="1" source="PdrcAa7CMFG8CxZzavgi-14" target="PdrcAa7CMFG8CxZzavgi-87">
          <mxGeometry relative="1" as="geometry" />
        </mxCell>
        <mxCell id="PdrcAa7CMFG8CxZzavgi-91" value="(0, N)" style="text;strokeColor=none;fillColor=none;spacingLeft=4;spacingRight=4;overflow=hidden;rotatable=0;points=[[0,0.5],[1,0.5]];portConstraint=eastwest;fontSize=12;whiteSpace=wrap;html=1;" vertex="1" parent="1">
          <mxGeometry x="460" y="590" width="50" height="30" as="geometry" />
        </mxCell>
      </root>
    </mxGraphModel>
  </diagram>
</mxfile>
